<svg version="1.1" id="Layer_1" xmlns="http://www.w3.org/2000/svg" xmlns:xlink="http://www.w3.org/1999/xlink" x="0px" y="0px"
	 width="100%" viewBox="0 0 1024 1024" enable-background="new 0 0 1024 1024" xml:space="preserve">
<path fill="#000000" opacity="1.000000" stroke="none" 
	d="
M179.246201,504.359680 
	C185.721710,485.574249 191.788010,467.055603 198.553131,448.795898 
	C200.380585,443.863464 197.098282,440.152161 197.414703,435.619049 
	C201.034302,434.085022 204.687302,434.851349 208.256729,434.953674 
	C210.252457,435.010925 210.853180,436.724152 211.412781,438.356812 
	C218.051834,457.726685 224.718872,477.086945 231.354095,496.458160 
	C232.962967,501.155182 232.124619,506.045105 232.313004,510.849335 
	C232.410507,513.336182 232.466217,515.546997 235.840775,515.681152 
	C238.454285,515.784973 238.618652,518.199036 239.311325,519.991028 
	C243.251755,530.184753 245.957520,540.895630 252.783249,550.783813 
	C245.738708,550.783813 239.446136,550.783813 232.689117,550.783813 
	C233.347000,541.034302 230.257080,532.092773 226.365036,523.459045 
	C221.580338,512.844971 213.897964,505.086426 202.620987,501.255646 
	C198.544800,499.871002 194.350220,499.750702 190.285706,500.577698 
	C186.359756,501.376465 182.623642,502.967865 181.175720,507.429321 
	C177.938141,517.405090 174.551666,527.332947 171.367737,537.325623 
	C169.946396,541.786438 169.076904,546.338013 173.216476,550.607605 
	C168.003952,551.904053 163.507767,551.273987 158.541107,550.532532 
	C163.097458,546.732239 165.933395,541.989075 167.836960,536.768738 
	C171.715439,526.132385 175.359146,515.410461 179.246201,504.359680 
M191.424835,477.833313 
	C189.092621,484.683838 186.760406,491.534332 184.186401,499.095093 
	C200.058746,493.988831 211.736771,500.151093 222.833862,511.855408 
	C215.494507,490.415375 208.631500,470.366913 201.302719,448.957855 
	C197.778442,459.279480 194.736740,468.187744 191.424835,477.833313 
z"/>
<path fill="#000000" opacity="1.000000" stroke="none" 
	d="
M840.546265,521.462891 
	C834.996704,511.491364 827.750916,503.980194 816.745483,501.002533 
	C811.312683,499.532593 805.952759,499.743744 800.705627,502.249512 
	C797.249146,503.900177 796.832764,507.696259 794.515198,511.063629 
	C792.888916,507.531097 794.002625,505.085083 794.821960,502.686859 
	C800.735718,485.375610 806.628967,468.056793 812.680176,450.793488 
	C814.043762,446.903442 814.831055,443.281464 812.958862,439.305939 
	C811.528748,436.269409 812.684692,434.810547 816.237549,434.700287 
	C825.063477,434.426331 825.082275,434.291504 827.908569,442.497864 
	C838.358521,472.841248 848.769409,503.198090 859.251587,533.530334 
	C861.256958,539.333130 863.591919,545.012390 867.901245,550.728882 
	C860.907898,550.728882 854.636353,550.728882 847.874268,550.728882 
	C848.342712,540.479187 845.143555,530.973572 840.546265,521.462891 
M804.386047,483.798340 
	C802.825745,488.660675 801.265442,493.523010 799.503357,499.014160 
	C815.416870,493.959473 827.217712,500.185944 838.120361,512.321960 
	C830.723755,490.791534 823.804138,470.649384 816.416748,449.145660 
	C812.134827,461.449982 808.377747,472.245911 804.386047,483.798340 
z"/>
<path fill="#000000" opacity="1.000000" stroke="none" 
	d="
M521.259766,441.688019 
	C508.035126,435.730682 495.552826,434.989166 484.001862,444.682556 
	C478.668701,449.158081 476.504120,455.110901 476.340973,461.906494 
	C476.277039,464.569977 476.069519,467.264038 476.365875,469.894745 
	C476.919281,474.806519 475.296051,476.785217 470.050476,476.452393 
	C463.224091,476.019257 463.075409,476.249329 463.059509,469.384064 
	C463.044861,463.055054 462.961182,456.723572 463.105286,450.397705 
	C463.219849,445.369507 462.759338,440.511414 459.331573,435.676514 
	C464.951172,434.188538 469.704010,434.659515 474.401367,435.073120 
	C476.331451,435.243073 476.264801,437.158875 476.286774,438.647644 
	C476.332794,441.765106 476.300690,444.883759 476.300690,448.505005 
	C493.208038,426.189423 523.466553,431.481201 539.915955,445.109894 
	C547.529053,451.417542 552.921021,459.327271 556.640320,468.408783 
	C557.566833,470.671021 558.736511,472.973999 557.998779,475.788300 
	C554.989502,476.958679 551.817383,476.276489 548.716858,476.266449 
	C545.488953,476.255951 545.457153,473.392578 544.759888,471.297760 
	C540.565186,458.695068 533.690674,448.229492 521.259766,441.688019 
z"/>
<path fill="#000000" opacity="1.000000" stroke="none" 
	d="
M267.203857,434.690521 
	C273.763824,434.190491 279.882019,433.625092 286.010406,433.209717 
	C299.415222,432.301117 312.652252,432.918518 325.032135,438.857544 
	C335.339844,443.802490 340.001495,452.149658 339.218964,463.478424 
	C338.443390,474.706665 334.294403,477.850525 323.008057,475.765442 
	C322.311218,475.005035 322.604736,474.213745 323.002441,473.480377 
	C331.973694,456.938324 322.911499,439.560059 302.904297,436.484344 
	C295.968140,435.418060 288.963226,435.957184 281.977600,436.360291 
	C278.866364,436.539795 278.144592,438.124939 278.169128,440.901001 
	C278.257385,450.883820 277.970978,460.875214 278.289948,470.848511 
	C278.452698,475.936462 275.972809,476.575714 271.864990,476.412323 
	C268.070892,476.261383 264.465820,476.835999 264.775635,471.017609 
	C265.137878,464.214752 264.760468,457.375946 264.890289,450.556244 
	C264.986603,445.497925 264.363953,440.656219 261.688324,436.389374 
	C263.030914,434.113190 265.062195,434.943756 267.203857,434.690521 
z"/>
<path fill="#000000" opacity="1.000000" stroke="none" 
	d="
M489.157318,550.620544 
	C502.225403,550.973328 514.128784,548.572632 524.873291,541.648804 
	C532.505188,536.730774 538.062012,530.015137 541.931702,521.849060 
	C545.242493,514.862549 548.676270,513.537354 557.031921,516.476257 
	C553.670532,525.956238 548.243408,533.868347 540.276001,539.964050 
	C528.717773,548.806946 515.069641,551.850159 501.024780,553.084961 
	C488.216248,554.211060 475.422272,552.681396 462.668671,551.363525 
	C461.889191,551.282959 461.139160,550.917542 460.037750,550.581665 
	C465.285461,541.201965 462.268616,531.209351 463.115631,521.572021 
	C463.294739,519.534058 462.267151,516.537598 464.890625,515.902039 
	C468.198853,515.100525 471.847839,514.652649 475.192535,515.949646 
	C476.842896,516.589661 476.294281,518.571960 476.301819,520.007446 
	C476.342926,527.837463 476.587311,535.680725 476.212677,543.493164 
	C475.987732,548.183899 477.446808,550.303772 482.230682,550.111816 
	C484.373352,550.025818 486.535828,550.433044 489.157318,550.620544 
z"/>
<path fill="#000000" opacity="1.000000" stroke="none" 
	d="
M698.981995,462.092499 
	C701.172913,466.734863 704.201538,470.573669 705.509399,475.257385 
	C696.422058,478.418640 691.901855,476.854675 687.644043,468.797424 
	C683.043579,460.091614 678.015259,451.673920 671.829102,444.004608 
	C669.592346,441.231476 666.996704,438.747833 663.806274,435.316162 
	C672.864380,434.242279 680.952881,434.628937 689.315613,435.028564 
	C688.631042,445.640533 694.476929,453.421783 698.981995,462.092499 
z"/>
<path fill="#000000" opacity="1.000000" stroke="none" 
	d="
M403.094604,458.782074 
	C402.024994,455.800476 401.092957,453.185669 399.916992,449.886383 
	C395.462708,458.757355 394.390564,468.152954 389.085480,475.832336 
	C388.790863,461.996643 401.572968,450.458435 395.453308,435.667969 
	C399.462463,434.048065 403.259094,434.873138 406.980804,434.963562 
	C408.261871,434.994690 408.958527,436.048401 409.356018,437.228394 
	C413.544250,449.661133 417.738495,462.091766 421.905273,474.531677 
	C421.993744,474.795807 421.775330,475.162781 421.648468,475.700714 
	C418.204895,476.941345 414.554474,476.255310 410.966797,476.220886 
	C408.906219,476.201141 408.346680,474.467926 407.809448,472.861389 
	C406.281189,468.291382 404.757599,463.719818 403.094604,458.782074 
z"/>
<path fill="#000000" opacity="1.000000" stroke="none" 
	d="
M652.005676,472.685333 
	C649.930481,479.230072 644.963806,475.795593 641.376343,476.100220 
	C637.845520,476.400024 638.757874,472.957092 638.713501,470.841156 
	C638.591492,465.027649 638.591492,459.208679 638.688477,453.394287 
	C638.788818,447.377411 638.623474,441.446991 634.102783,435.264313 
	C641.718018,434.360474 648.145874,434.798615 655.274902,434.962982 
	C649.517700,447.474701 653.053345,460.004883 652.005676,472.685333 
z"/>
<path fill="#000000" opacity="1.000000" stroke="none" 
	d="
M570.433533,435.297974 
	C576.827026,434.430145 582.885498,434.758179 589.692200,434.902893 
	C583.500366,446.875763 586.789490,458.921539 586.280334,470.630676 
	C586.053589,475.844910 583.893555,476.550598 579.554016,476.445251 
	C575.493774,476.346649 572.284241,476.339203 572.755798,470.790161 
	C573.133972,466.339508 572.652344,461.822113 572.876831,457.350647 
	C573.251099,449.894806 572.546021,442.618469 570.433533,435.297974 
z"/>
<path fill="#000000" opacity="1.000000" stroke="none" 
	d="
M323.863312,538.104858 
	C319.755493,530.693909 315.810974,523.619263 311.824799,516.469788 
	C320.754791,513.542603 325.718689,515.286255 329.940704,522.462463 
	C335.477478,531.873413 340.706573,541.476990 348.275024,550.842651 
	C341.463043,551.742371 335.585327,551.365845 329.723541,551.151367 
	C328.268738,551.098206 327.888763,549.934448 327.777954,548.688232 
	C327.444305,544.936523 325.629883,541.727661 323.863312,538.104858 
z"/>
<path fill="#000000" opacity="1.000000" stroke="none" 
	d="
M435.317566,515.839844 
	C438.680450,520.464294 439.404572,525.847412 441.457947,530.714722 
	C444.221588,537.265686 446.377594,544.087463 451.445312,550.925598 
	C444.451996,551.647644 438.330048,551.570374 432.201660,550.960632 
	C431.042084,550.845276 430.853210,549.612427 430.881989,548.591858 
	C431.212402,536.874573 426.425354,526.670654 420.978027,516.070190 
	C425.874664,515.184509 430.426178,515.630981 435.317566,515.839844 
z"/>
<path fill="#000000" opacity="1.000000" stroke="none" 
	d="
M586.113953,528.022949 
	C586.565796,535.855286 584.537231,543.528381 589.956787,550.849243 
	C582.804688,550.849243 576.541931,550.849243 569.665161,550.849243 
	C574.582520,540.940735 572.668030,530.846252 572.729309,520.984863 
	C572.759216,516.177795 574.645874,514.952393 578.955566,515.037537 
	C585.399109,515.164856 585.934448,515.431885 586.074890,521.030884 
	C586.129150,523.195862 586.101807,525.362793 586.113953,528.022949 
z"/>
<path fill="#000000" opacity="1.000000" stroke="none" 
	d="
M652.034912,534.940796 
	C652.103638,540.541260 651.427063,545.801270 656.313538,550.795410 
	C648.567627,550.795410 642.127136,550.795410 634.969788,550.795410 
	C640.722534,540.924988 638.208862,530.354736 638.596619,520.092834 
	C638.728333,516.607666 639.955017,515.231262 643.317200,515.543091 
	C643.972961,515.603943 644.644104,515.509766 645.307556,515.474854 
	C651.664001,515.140564 651.980896,515.432129 652.028076,521.992920 
	C652.057922,526.145752 652.034119,530.298950 652.034912,534.940796 
z"/>
<path fill="#000000" opacity="1.000000" stroke="none" 
	d="
M262.140442,549.445007 
	C264.153076,545.629578 264.886047,541.942383 264.872559,538.053955 
	C264.851318,531.917053 264.949066,525.779236 264.867859,519.643494 
	C264.825775,516.466919 266.122253,515.265991 269.350067,515.321228 
	C278.188263,515.472412 278.192505,515.369568 278.209900,524.324402 
	C278.215363,527.144104 278.171814,529.964111 278.206512,532.783386 
	C278.280975,538.830261 277.347717,545.042542 282.451263,551.283020 
	C274.691010,550.717896 268.290100,553.067749 262.140442,549.445007 
z"/>
<path fill="#000000" opacity="1.000000" stroke="none" 
	d="
M718.002136,551.373840 
	C714.572144,551.183472 711.553040,551.849426 708.159851,550.602112 
	C714.373779,539.626770 710.275574,527.551147 712.066406,516.016235 
	C715.439819,514.875610 718.775696,515.756714 722.055969,515.614746 
	C724.641418,515.502869 724.862244,517.530457 724.883972,519.421021 
	C724.939331,524.242676 724.826477,529.067139 724.933167,533.887085 
	C725.056519,539.456543 724.050598,545.228699 728.404541,550.421570 
	C724.664307,551.894592 721.514038,551.161682 718.002136,551.373840 
z"/>
<path fill="#000000" opacity="1.000000" stroke="none" 
	d="
M742.483276,466.546631 
	C745.503113,460.201752 748.423035,454.221191 751.181519,448.167114 
	C753.055603,444.054047 754.025513,439.896515 749.099854,435.693390 
	C754.728027,434.091919 759.377625,434.680756 765.491455,435.169342 
	C753.359924,446.688751 749.119080,461.309113 742.041138,474.313599 
	C741.734802,474.876556 741.244629,475.399109 740.716980,475.760986 
	C740.367004,476.001007 739.797180,475.920593 739.045776,476.021057 
	C738.530151,472.290253 741.341431,469.891541 742.483276,466.546631 
z"/>
<path fill="#000000" opacity="1.000000" stroke="none" 
	d="
M371.656006,521.823730 
	C372.881714,519.482727 372.281586,516.374023 376.017548,515.449280 
	C375.478180,527.425964 365.032349,537.747986 370.733551,550.953979 
	C366.691254,551.942383 362.110962,551.243408 355.992493,551.116821 
	C365.563141,542.783752 367.937134,532.183289 371.656006,521.823730 
z"/>
<path fill="#000000" opacity="1.000000" stroke="none" 
	d="
M779.127991,544.082275 
	C785.000000,535.273682 786.245239,524.889038 791.112305,516.042908 
	C791.200134,515.883179 791.716003,515.958923 792.513184,515.872864 
	C792.413513,527.540161 781.247498,537.672180 787.726196,550.771790 
	C783.223206,551.871948 778.639587,551.347290 773.718262,551.122009 
	C774.323303,547.529236 777.969543,546.997253 779.127991,544.082275 
z"/>
<path fill="#000000" opacity="1.000000" stroke="none" 
	d="
M516.573975,494.325409 
	C517.874878,491.889923 515.257324,487.347504 519.306946,487.743896 
	C522.377930,488.044464 519.967651,491.945221 520.219788,494.178894 
	C520.640381,497.904358 520.334534,501.711761 520.334534,505.618500 
	C516.882324,506.065460 517.060608,503.895569 517.086914,501.956299 
	C517.124756,499.163422 516.600891,497.084076 513.068359,497.071014 
	C509.540649,497.058014 509.028625,499.095886 509.017609,501.913422 
	C509.011719,503.419739 509.666656,505.841766 507.179230,505.729828 
	C504.613312,505.614319 505.777588,503.185577 505.725830,501.741150 
	C505.595184,498.095825 505.644318,494.442474 505.689484,490.793213 
	C505.706299,489.431793 505.024170,487.429535 507.465942,487.544464 
	C509.375031,487.634338 508.955200,489.341156 509.085510,490.615387 
	C509.664001,496.272003 510.944092,496.976593 516.573975,494.325409 
z"/>
<path fill="#000000" opacity="1.000000" stroke="none" 
	d="
M623.039734,490.514557 
	C622.784485,495.685577 623.250549,500.485504 622.062744,505.761139 
	C617.736938,502.812500 616.015564,498.070648 612.184937,494.793427 
	C610.183228,498.437592 612.260132,502.385864 610.913757,505.959839 
	C608.933105,504.309479 608.381104,498.380249 609.007812,487.163940 
	C614.590149,489.296936 615.537109,495.516663 620.181274,498.567963 
	C621.271240,494.989166 620.301392,491.278107 620.472839,487.845825 
	C623.075684,487.307495 623.078125,488.694275 623.039734,490.514557 
z"/>
<path fill="#000000" opacity="1.000000" stroke="none" 
	d="
M573.623474,505.518555 
	C568.333679,501.536407 567.019348,495.147736 570.245361,490.597748 
	C573.056152,486.633453 578.829407,485.812256 583.072815,488.773132 
	C586.875610,491.426605 588.200073,496.755951 586.169861,501.235046 
	C584.150208,505.690826 579.987915,507.209290 573.623474,505.518555 
M580.676208,503.445038 
	C585.225159,499.745239 585.727295,495.935028 582.182129,492.018646 
	C579.556030,489.117584 575.348328,488.789062 572.853455,491.290222 
	C570.348206,493.801880 570.897095,499.402710 573.868591,502.150513 
	C575.637939,503.786774 577.715393,503.957184 580.676208,503.445038 
z"/>
<path fill="#000000" opacity="1.000000" stroke="none" 
	d="
M482.822571,491.357025 
	C481.770752,491.058105 481.023438,490.704346 480.295685,490.314026 
	C478.390503,489.292358 476.255890,488.613129 475.120361,490.985657 
	C473.872375,493.593140 476.432434,494.290405 478.076233,495.261780 
	C478.786041,495.681244 479.627014,495.874939 480.351013,496.274963 
	C482.834473,497.647156 484.949493,499.425232 483.774994,502.595764 
	C482.539093,505.932159 479.570679,506.645630 476.391144,506.376099 
	C473.360870,506.119171 471.092010,504.903442 471.094299,501.272400 
	C473.709900,500.605652 474.207001,503.358490 476.037903,503.556305 
	C477.711182,503.737030 479.563690,504.212524 480.390991,502.252411 
	C481.144440,500.467285 479.668457,499.561188 478.351410,498.773651 
	C476.648956,497.755676 474.755341,496.969177 473.267548,495.702881 
	C471.407288,494.119507 471.159424,491.889648 472.508026,489.831055 
	C474.249542,487.172729 476.887939,486.272919 479.901459,487.148926 
	C481.815186,487.705200 484.452698,488.050415 482.822571,491.357025 
z"/>
<path fill="#000000" opacity="1.000000" stroke="none" 
	d="
M437.946899,498.033508 
	C439.477783,494.352570 440.863373,491.022125 442.248993,487.691650 
	C442.713318,487.602570 443.177673,487.513489 443.642029,487.424377 
	C446.190582,493.272247 448.739136,499.120117 451.266388,504.919067 
	C448.692932,506.576416 448.018219,505.191895 447.389832,503.746490 
	C446.402283,501.474823 445.792053,498.978607 442.333252,499.289795 
	C439.284454,499.564117 438.672546,501.703796 437.971222,503.968872 
	C437.663025,504.964294 437.215912,505.854462 435.605804,505.510010 
	C434.647888,502.671082 437.379669,500.834473 437.946899,498.033508 
z"/>
<path fill="#000000" opacity="1.000000" stroke="none" 
	d="
M414.344238,490.308594 
	C413.093597,490.058685 412.177063,489.652954 411.217682,489.444855 
	C409.754944,489.127533 408.218048,488.872986 407.051331,490.172852 
	C406.195496,491.126343 406.168762,492.346375 406.606812,493.448883 
	C407.345001,495.306671 409.015564,494.760895 410.460968,494.734222 
	C411.827148,494.709015 413.918427,493.834564 413.723938,496.278687 
	C413.570404,498.208130 411.673218,497.475403 410.485413,497.264130 
	C406.942963,496.633972 406.137299,498.454865 406.292816,501.501495 
	C406.364197,502.899780 406.859558,504.449219 405.804962,505.736969 
	C403.478516,506.134583 403.271118,504.919983 403.348328,503.151062 
	C403.514038,499.353363 403.960449,495.490540 403.471924,491.761810 
	C402.895355,487.361053 405.010498,486.290100 408.479889,486.914124 
	C410.745453,487.321625 414.960052,484.864166 414.344238,490.308594 
z"/>
<path fill="#000000" opacity="1.000000" stroke="none" 
	d="
M546.223450,500.446045 
	C546.255615,501.864746 546.313782,502.858887 546.297974,503.851837 
	C546.280518,504.947357 545.908691,505.850220 544.603455,505.754669 
	C543.380676,505.665070 542.951233,504.758148 542.944397,503.680908 
	C542.914978,499.043396 542.926819,494.405670 542.920410,489.768005 
	C542.918579,488.442139 543.366699,487.396729 544.873718,487.509338 
	C546.442810,487.626556 546.474060,488.859344 546.439148,490.088715 
	C546.344971,493.398895 546.288330,496.710144 546.223450,500.446045 
z"/>
</svg>